<svg xmlns="http://www.w3.org/2000/svg" version="1.1" xmlns:xlink="http://www.w3.org/1999/xlink" xmlns:svgjs="http://svgjs.dev/svgjs" width="1440" height="250" preserveAspectRatio="none" viewBox="0 0 1440 250">
    <g mask="url(&quot;#SvgjsMask1062&quot;)" fill="none">
        <path d="M24 250L274 0L536.5 0L286.5 250z" fill="url(&quot;#SvgjsLinearGradient1063&quot;)"></path>
        <path d="M240.60000000000002 250L490.6 0L576.1 0L326.1 250z" fill="url(&quot;#SvgjsLinearGradient1063&quot;)"></path>
        <path d="M492.20000000000005 250L742.2 0L884.7 0L634.7 250z" fill="url(&quot;#SvgjsLinearGradient1063&quot;)"></path>
        <path d="M739.8000000000001 250L989.8000000000001 0L1193.8000000000002 0L943.8000000000001 250z" fill="url(&quot;#SvgjsLinearGradient1063&quot;)"></path>
        <path d="M1428 250L1178 0L987.5 0L1237.5 250z" fill="url(&quot;#SvgjsLinearGradient1064&quot;)"></path>
        <path d="M1160.4 250L910.4000000000001 0L871.4000000000001 0L1121.4 250z" fill="url(&quot;#SvgjsLinearGradient1064&quot;)"></path>
        <path d="M951.8 250L701.8 0L397.29999999999995 0L647.3 250z" fill="url(&quot;#SvgjsLinearGradient1064&quot;)"></path>
        <path d="M702.1999999999999 250L452.19999999999993 0L213.69999999999993 0L463.69999999999993 250z" fill="url(&quot;#SvgjsLinearGradient1064&quot;)"></path>
        <path d="M1206.953274989497 250L1440 16.953274989496947L1440 250z" fill="url(&quot;#SvgjsLinearGradient1063&quot;)"></path>
        <path d="M0 250L233.04672501050305 250L 0 16.953274989496947z" fill="url(&quot;#SvgjsLinearGradient1064&quot;)"></path>
    </g>
    <defs>
        <mask id="SvgjsMask1062">
            <rect width="1440" height="250" fill="#ffffff"></rect>
        </mask>
        <linearGradient x1="0%" y1="100%" x2="100%" y2="0%" id="SvgjsLinearGradient1063">
            <stop stop-color="rgba(11, 165, 233, 0.15)" offset="0"></stop>
            <stop stop-opacity="0" stop-color="rgba(11, 165, 233, 0.15)" offset="0.66"></stop>
        </linearGradient>
        <linearGradient x1="100%" y1="100%" x2="0%" y2="0%" id="SvgjsLinearGradient1064">
            <stop stop-color="rgba(11, 165, 233, 0.15)" offset="0"></stop>
            <stop stop-opacity="0" stop-color="rgba(11, 165, 233, 0.15)" offset="0.66"></stop>
        </linearGradient>
    </defs>
</svg>